<svg id="Layer_1" data-name="Layer 1" xmlns="http://www.w3.org/2000/svg" viewBox="0 0 150 65"><defs><style>.cls-1{fill:#ffe81f;}</style></defs><g id="Layer_2" data-name="Layer 2"><path class="cls-1" d="M28.11,35.25l2.05,6a45,45,0,0,0,2.23,5.86h0c.14-.13,4.16-11.78,4.16-11.78h7.78L34.94,62.7H29.53S23.76,46,23.79,46l-6,16.53H12.41L3.14,35.25h7.74s4.24,12,4.3,12h0l4.23-12h8.7M.5,33.35l.85,2.51,9.27,27.23.43,1.29h8l.46-1.25,4.18-11.47L24.86,55c1.44,4.18,2.89,8.34,2.89,8.34l.44,1.28h8.1l.44-1.28L46.12,36,47,33.45H35.2l-.44,1.28c-.71,2-1.64,4.74-2.44,7L32,40.66l-2.05-6-.44-1.29H18.07l-.44,1.27-2.48,7c-.81-2.29-1.76-5-2.48-7l-.45-1.26H.5Z"/><path class="cls-1" d="M147.93,35.14l0,7.17s-7.72,0-11.65,0H134c-.68.13-1.11,1.57-.92,2.2a13.15,13.15,0,0,0,1.57,2.32l2.79,3.48c2,2.46,2.24,2.94,2.42,4.35a7.32,7.32,0,0,1-2.8,6.41c-2,1.63-1.93,1.65-16.89,1.65h-.65c-9.1,0-13.91-.08-14.61-.24-1.25-.28-3.23-1.9-8.47-6.92-1.88-1.81-3.62-3.39-3.71-3.39h0L92.7,62.7l-8.5,0,0-27.2h18.94c5.71.21,9.57,5.89,8.8,9.52a10.7,10.7,0,0,1-1,2.65,11.1,11.1,0,0,1-4.26,3.69c-.58.26-1,.56-1,.67a7.78,7.78,0,0,0,2.62,2.58c.61.26,2.39.32,10.22.32h2.51c7.88,0,7.48-.06,8.09-1.36.43-.91.1-1.45-2.9-4.83-3.79-3.77-3.39-5.58-3.42-6.92,0-1.6,1.21-6.64,7.76-6.64h17.46M97.05,47.71c3.64,0,4.38-.06,5.15-.4a3.29,3.29,0,0,0,.25-6c-.55-.32-1.26-.38-5.2-.4l-4.56,0s0,6.52,0,6.52a21.59,21.59,0,0,0,4.37.28m52.78-14.46H130.47A9.67,9.67,0,0,0,123.22,36a8.59,8.59,0,0,0-2.4,5.83v.31c0,2,.27,4.2,3.94,7.86.72.82,1.94,2.19,2.39,2.87-1,.12-3.54.12-6.21.12h-2.51c-4.71,0-8.68,0-9.49-.17-.11-.08-.27-.2-.45-.36a12.81,12.81,0,0,0,4.05-3.88,12.4,12.4,0,0,0,1.2-3.21A9.23,9.23,0,0,0,111.61,38a11.3,11.3,0,0,0-8.45-4.45H82.25v1.89l0,27.2v1.88h1.88l8.5,0h1.89V62.71l0-6.32.54.51c5.73,5.5,7.66,7,9.36,7.41.47.1,1.24.27,15,.28h.65c7.47,0,11.21,0,13.44-.22a6.93,6.93,0,0,0,4.6-1.82l0,0a9.14,9.14,0,0,0,3.49-8.11c-.25-1.92-.76-2.72-2.83-5.29l-.61-.77-2.17-2.71c-.47-.59-.84-1.11-1.06-1.45h1.16l11.64,0h1.9v-1.9l0-7.17V33.25ZM94.58,45.74c0-.47,0-1,0-1.55s0-.94,0-1.38l2.64,0a37.71,37.71,0,0,1,4.26.14,1.61,1.61,0,0,1,.85,1.44,1.36,1.36,0,0,1-.9,1.17c-.42.18-1.08.23-4.4.23-1,0-1.86,0-2.47-.07Z"/><path class="cls-1" d="M66.94,35l9.54,27.42-7.77,0-1.29-4.12-13.89-.11-1.22,4.12-7.69-.08L54,35H66.94m-6.24,4c0,.08-1.22,3.36-2.42,6.65s-2.42,6.62-2.44,6.65h0l7.09,0h2.26c0-.12-4.48-13.12-4.49-13.28h0m7.59-5.92H52.68l-.44,1.27L42.83,61.68,42,64.16l2.62,0,7.69.08,1.43,0,.4-1.37.82-2.76L66,60.25l.87,2.8.42,1.33h1.4l7.76,0h2.65l-.87-2.5L68.73,34.41l-.44-1.28ZM58.56,50.44l1.5-4.09c.2-.57.39-1.08.57-1.55.15.46.32,1,.51,1.51s.82,2.43,1.4,4.12Z"/><path class="cls-1" d="M70.16,2.3V9.06H56.61v20.7H48.53V9.05l-15.82,0a2,2,0,0,0-2.16,2.1c0,.72.47,1.43,3,4.67A47.31,47.31,0,0,1,37,20.53c1.1,2.52-.32,6.46-2.9,8.06-1.85,1.14-1.53,1.17-15.22,1.17H1.89v-7.6H25.05l.68-.48a2,2,0,0,0,.84-1.37c.14-.87.06-1-2.8-4.21-3.38-3.8-3.73-4.5-3.56-6.93.2-2.78,2.67-6.81,7-6.81L70.16,2.3M72.05.4h-1.9L27.21.47a8.5,8.5,0,0,0-6.47,3A9.87,9.87,0,0,0,18.32,9c-.23,3.2.51,4.35,4,8.33,1,1.15,2,2.25,2.32,2.72,0,0,0,0,0,0h0l-.19.13H0V31.65H18.84c6.75,0,10.08,0,12-.15a7.21,7.21,0,0,0,4-1.22l.13-.08c3.38-2.09,5.11-7.06,3.65-10.43a49.21,49.21,0,0,0-3.64-5.08,33.21,33.21,0,0,1-2.61-3.56.24.24,0,0,1,0-.12.83.83,0,0,1,.23,0l13.93,0v20.7H58.5V11H72.05V.4Z"/><path class="cls-1" d="M92.17,2.52,101.68,30l-7.76,0-1.25-4.12-13.83-.06-1.23,4h-7.9l9.4-27.24H92.17M81.1,19.93h9.41S85.94,6.39,85.91,6.38h0S81,19.93,81.1,19.93M93.52.63H77.76L77.32,1.9l-9.4,27.24-.86,2.51H79l.41-1.33.82-2.63,11,0,.85,2.78.41,1.33h1.39l7.76,0,2.67,0-.87-2.53L94,1.9,93.52.63ZM83.73,18c.58-1.66,1.39-3.94,2.13-6,.7,2,1.47,4.32,2,6Z"/><path class="cls-1" d="M118.87,2.52c6.13,0,10.38.09,11.2.23A8.19,8.19,0,0,1,135,5.64a6.57,6.57,0,0,1,1.82,4.62,7.9,7.9,0,0,1-4.19,7.61c-.86.51-1.74,1-2,1.11s-.29.3.31,1a12,12,0,0,0,1.51,1.44l.79.62,14.69.21.14,7.5h-9c-7,0-9.2-.07-9.85-.29-1-.33-3.33-2.32-8.11-6.87l-3.41-3.24,0,10.4H109V2.52h9.89m-1.3,12.25h4.66c4.53,0,4.67,0,5.31-.5A3.12,3.12,0,0,0,129,11.14a2.89,2.89,0,0,0-2-2.74c-.77-.34-1.51-.39-5.14-.39h-4.24v6.76M118.87.63H107.09v31h12.55v-1.9l0-6,.2.19c5.91,5.63,7.65,6.9,8.8,7.29.89.3,2.37.39,10.46.39H150l0-1.93-.14-7.49,0-1.83-1.83,0-14-.2-.29-.23a3.54,3.54,0,0,1-.33-.28l.29-.17a9.84,9.84,0,0,0,5.1-9.38,8.47,8.47,0,0,0-2.25-5.68,10.16,10.16,0,0,0-6-3.55c-1.3-.22-7.78-.25-11.53-.25Zm.6,9.27h2.34c3.32,0,4,.06,4.38.23.77.34.85.5.91,1.18a1.29,1.29,0,0,1-.69,1.44l-.06,0c-.44.08-2.07.08-4.12.08h-2.76v-3Z"/></g></svg>